# xmcd
#
# Track frame offsets:
#	150
#	14953
#	29907
#	45826
#	65083
#	82151
#	102262
#	122316
#	144469
#	156939
#	172938
#	188174
#	206556
#	224119
#	240355
#	256992
#	276727
#	292871
#	314707
#
# Disc length: 4428 seconds
#
# Revision: 2
# Processed by: cddbd v1.5.2PL0 Copyright (c) Steve Scherf et al.
# Submitted via: audiograbber 1.83.01
#
DISCID=28114a13
DTITLE=Various Artist - Melodic Trance 2007
DYEAR=2007
DGENRE=Trance
TTITLE0=Master Blaster feat. Rachel Hiew - Walking In Memphis (Radio Mix)
TTITLE1=David Kane - Club Sound (Radio Edit)
TTITLE2=Clubbticket - Sunshine (Original Mix Edit)
TTITLE3=Air One feat. Julia - Visions Of Paradise (Orig. Version)
TTITLE4=NDS vs. Tom E - 2gether 4ever (Clubraiders Remix Edit)
TTITLE5=Johan Gielen - Magnitude (Club Mix Edit)
TTITLE6=ATB with Heather Nova - Renegade (Short A&T Mix)
TTITLE7=Re-Flex - Lui 2007 (Lars Sea Mix Edit)
TTITLE8=Royal Melody - Blinded By The Light (Beatfreakz Radio Remix)
TTITLE9=DJ Andy Garcia vs. Hands Up Squad and Clubraiders - Movin' On (Montana and 
TTITLE9=Graziano Piano Edit)
TTITLE10=DJ Tom Joins Patrick Marsh - Small Town Boy (Radio Mix 2)
TTITLE11=Niels Van Gogh - One Way Out (Radio Edit)
TTITLE12=Tiësto feat. Christian Burns - In The Dark (Radio Edit)
TTITLE13=DJ Analyzer vs. D-JMC - We Belong (Basslovers United Remix Edit)
TTITLE14=Krystal - Eternity (Phalanx Radio Edit)
TTITLE15=Clamore Project vs. I Santo California - Torneró 2007 (Club Mix 2 Edit
TTITLE15=)
TTITLE16=Store N Forward and Cressida - Why Don't We Talk About It (Orig. Radio M
TTITLE16=ix)
TTITLE17=Backside Artists vs. Geen Plank - Sonic Empire 2007 (Club Mix)
TTITLE18=Enur feat. Natasha - Calabria 2007 (Radio Edit)
EXTD=
EXTT0=
EXTT1=
EXTT2=
EXTT3=
EXTT4=
EXTT5=
EXTT6=
EXTT7=
EXTT8=
EXTT9=
EXTT10=
EXTT11=
EXTT12=
EXTT13=
EXTT14=
EXTT15=
EXTT16=
EXTT17=
EXTT18=
PLAYORDER=
